<svg xmlns="http://www.w3.org/2000/svg" version="1.1" id="Layer_1" x="0" y="0" width="425" height="300" viewBox="0" enable-background="new 0 0 425 300" xml:space="preserve">
  <linearGradient id="GRAYGRAD" gradientUnits="userSpaceOnUse" x1="94.06" y1="-3.26" x2="201.53" y2="220.74">
    <stop offset="0" stop-color="#9C9C9C"/>
    <stop offset="0.17" stop-color="#848484"/>
    <stop offset="0.4" stop-color="#6B6B6B"/>
    <stop offset="0.54" stop-color="#616161"/>
    <stop offset="0.67" stop-color="#6A6A6A"/>
    <stop offset="0.88" stop-color="#828282"/>
    <stop offset="1" stop-color="#929292"/>
  </linearGradient>
  <path fill="url(#GRAYGRAD)" d="M275.1 103.11v0c0-42.77-14.5-84.15-130-84.15 -115.5 0-130 41.38-130 84.15v0c0 42.77 14.5 84.15 130 84.15 28.41 0 50.71-2.51 68.18-6.92 8.04 6.03 38.75 24.91 44.13 21.3 5.49-3.69 1.23-32.73-0.96-43.23C271.88 143.06 275.1 123.24 275.1 103.11zM66.67 103.11c0-23.22 8.75-45.69 78.42-45.69 69.68 0 78.42 22.47 78.42 45.7 0 23.23-8.75 45.7-78.42 45.7C75.42 148.81 66.67 126.33 66.67 103.11z"/>
  <linearGradient id="GREENGRAD" gradientUnits="userSpaceOnUse" x1="29.84" y1="226.55" x2="29.84" y2="266.91">
    <stop offset="0" stop-color="#54660E"/>
    <stop offset="1" stop-color="#7B9711"/>
  </linearGradient>
  <path fill="url(#GREENGRAD)" d="M30.38 226.55v10.39h7.1v7.44h-7.1v11.47c0 3.12 1.48 3.92 3.41 3.92 1.08 0 2.1-0.4 3.07-0.91l2.05 5.96c-1.76 1.14-4.88 2.1-8.06 2.1 -9.65 0-10.05-5.62-10.05-11.3V226.55H30.38z"/>
  <path fill="url(#GREENGRAD)" d="M42.3 266V226.55h9.48v11.98c1.65-1.48 3.86-2.44 6.47-2.44 5.96 0 9.2 3.35 9.2 10.22v19.7h-9.48v-18.45c0-2.56-0.51-4.2-2.61-4.2 -2.33 0-3.57 1.76-3.57 4.03v18.62H42.3z"/>
  <path fill="url(#GREENGRAD)" d="M96.68 244.94c0 8.23-9.31 9.88-14.87 10.22 0.23 2.55 2.16 4.65 5.62 4.65 2.73 0 5.22-1.19 7.04-2.38l2.5 6.25c-0.28 0.28-4.54 3.24-10.9 3.24 -9.99 0-13.91-6.02-13.91-14.65 0-8.23 4.88-16.18 14.59-16.18C92.71 236.09 96.68 238.98 96.68 244.94zM86.23 242.73c-2.84 0-4.71 2.78-4.88 6.7 3.06-0.17 7.09-1.59 7.09-4.37C88.45 243.64 87.59 242.73 86.23 242.73z"/>
  <path fill="url(#GREENGRAD)" d="M101.1 266v-23.22l-0.68-5.85h7.83l0.62 3.07c1.76-2.38 4.09-3.92 7.83-3.92 3.29 0 5.96 1.14 7.49 3.75 1.7-2.33 4.14-3.75 7.78-3.75 5.56 0 8.97 3.12 8.97 10.05v19.87h-9.48v-18.22c0-2.55-0.34-4.43-2.61-4.43 -2.21 0-3.12 1.76-3.12 4.2v18.45h-9.48v-18.22c0-2.5-0.23-4.43-2.56-4.43 -2.27 0-3.12 1.76-3.12 4.26v18.39H101.1z"/>
  <path fill="url(#GREENGRAD)" d="M159.51 236.09c4.54 0 13.28 1.36 13.28 14.7 0 10.67-6.24 16.12-14.08 16.12 -8.12 0-13.11-4.88-13.11-15.21C145.6 239.78 153.32 236.09 159.51 236.09zM162.98 251.64c0-5.79-0.96-8.74-3.86-8.74 -2.67 0-3.86 3.01-3.86 7.72 0 4.88 0.51 9.37 3.86 9.37C161.9 259.98 162.98 257.2 162.98 251.64z"/>
  <path fill="url(#GREENGRAD)" d="M200.67 236.94c1.14 3.8 1.93 8.91 1.93 13.06 0 11.01-4.99 16.75-14.42 16.75 -7.38 0-10.84-3.35-10.84-10.33v-19.47h9.54v18.34c0 2.73 0.28 4.14 2.39 4.14 3.23 0 4.03-4.48 4.03-9.14 0-4.31-0.96-9.43-1.93-13.34H200.67z"/>
  <path fill="url(#GREENGRAD)" d="M212.75 223.94c3.01 0 5.05 2.1 5.05 4.71 0 2.72-2.04 4.71-5.05 4.71 -3.12 0-5.05-1.99-5.05-4.71C207.7 226.04 209.63 223.94 212.75 223.94zM207.99 266v-29.06h9.54v29.07H207.99z"/>
  <path fill="url(#GREENGRAD)" d="M246.76 244.94c0 8.23-9.31 9.88-14.87 10.22 0.23 2.55 2.16 4.65 5.62 4.65 2.73 0 5.22-1.19 7.04-2.38l2.5 6.25c-0.28 0.28-4.54 3.24-10.9 3.24 -9.99 0-13.91-6.02-13.91-14.65 0-8.23 4.88-16.18 14.59-16.18C242.78 236.09 246.76 238.98 246.76 244.94zM236.31 242.73c-2.84 0-4.71 2.78-4.88 6.7 3.07-0.17 7.1-1.59 7.1-4.37C238.52 243.64 237.67 242.73 236.31 242.73z"/>
  <path fill="url(#GREENGRAD)" d="M266.57 236.37v-9.82h9.42v33.26l0.63 6.19h-7.95l-0.51-2.73h-0.34c-1.48 2.38-3.8 3.58-7.04 3.58 -9.54 0-11.18-7.44-11.18-13.96 0-9.82 5.28-16.8 14.25-16.8C265.09 236.09 265.89 236.2 266.57 236.37zM266.57 243.24c-0.62-0.23-1.36-0.4-2.21-0.4 -4.43 0-5.34 5.05-5.34 9.31 0 4.37 0.85 7.95 3.98 7.95 2.21 0 3.58-1.64 3.58-3.12V243.24z"/>
  <path fill="url(#GREENGRAD)" d="M282.4 226.55h9.54v10.9c1.25-0.74 3.24-1.36 5.45-1.36 7.04 0 11.41 4.66 11.41 14.14 0 11.07-5.22 16.69-14.48 16.69 -4.32 0-9.42-1.08-11.92-2.39V226.55zM291.94 259.76c0.85 0.34 1.87 0.57 2.84 0.57 3.69 0 4.54-3.46 4.54-8.85 0-4.6-0.74-8.69-4.48-8.69 -1.59 0-2.89 1.08-2.89 2.73V259.76z"/>
  <path fill="url(#GREENGRAD)" d="M317.08 257.94c3.18 0 4.83 1.76 4.83 4.43 0 2.56-1.59 4.54-4.65 4.54 -3.18 0-4.77-1.87-4.77-4.49C312.48 259.93 314.19 257.94 317.08 257.94z"/>
  <path fill="url(#GREENGRAD)" d="M339.73 236.09c4.54 0 13.29 1.36 13.29 14.7 0 10.67-6.25 16.12-14.08 16.12 -8.12 0-13.11-4.88-13.11-15.21C325.82 239.78 333.54 236.09 339.73 236.09zM343.19 251.64c0-5.79-0.96-8.74-3.86-8.74 -2.67 0-3.86 3.01-3.86 7.72 0 4.88 0.51 9.37 3.86 9.37C342.12 259.98 343.19 257.2 343.19 251.64z"/>
  <path fill="url(#GREENGRAD)" d="M367.26 266h-9.48v-23.5l-0.74-5.56h7.72l0.74 4.03c1.53-3.57 4.37-4.88 6.81-4.88 1.42 0 3.24 0.34 4.71 1.08l-1.53 7.89c-1.19-0.62-2.61-0.96-4.09-0.96 -2.44 0-4.09 1.53-4.14 4.14V266z"/>
  <path fill="url(#GREENGRAD)" d="M380.43 272.87c0-4.15 2.21-7.15 5.96-9.88 -4.6-0.68-8.69-5.11-8.69-12.04 0-9.76 6.13-14.87 14.88-14.87 3.41 0 8.12 0.74 11.64 2.27v22.08c0 1.48-0.06 5.05-0.17 6.64 -0.62 8.69-4.82 13.96-13.4 13.96C383.84 281.05 380.43 277.92 380.43 272.87zM394.79 243.13c-0.68-0.17-1.36-0.28-2.33-0.28 -3.91 0-5.28 3.97-5.28 8 0 3.58 0.4 7.49 4.09 7.49 1.87 0 3.52-1.36 3.52-3.92V243.13zM391.56 274.23c2.95 0 3.35-2.95 3.35-8.17v-2.9c-3.46 1.99-5.96 5.11-5.96 8.23C388.94 273.44 389.91 274.23 391.56 274.23z"/>
</svg>
